<svg width="725" height="97" viewBox="0 0 725 97" fill="none" xmlns="http://www.w3.org/2000/svg">
<path d="M18.194 94.997V89.5605L37.534 87.4145H42.9779L62.3179 89.5605V94.997H18.194ZM31.0873 94.997C31.2784 90.4189 31.4216 85.6976 31.5171 80.8333C31.6126 75.8736 31.6604 70.8186 31.6604 65.6681C31.6604 60.5177 31.6604 55.4626 31.6604 50.5029V44.351C31.6604 39.3913 31.6604 34.384 31.6604 29.3289C31.6604 24.1785 31.6126 19.1711 31.5171 14.3068C31.5171 9.3471 31.4216 4.57817 31.2306 0H49.4246C49.3291 4.48279 49.2336 9.20403 49.1381 14.1637C49.0425 19.1234 48.9948 24.1308 48.9948 29.1858C48.9948 34.2409 48.9948 39.296 48.9948 44.351V50.5029C48.9948 55.3673 48.9948 60.3746 48.9948 65.5251C48.9948 70.6755 49.0425 75.7306 49.1381 80.6903C49.2336 85.6499 49.3291 90.4189 49.4246 94.997H31.0873ZM0 26.3245L1.14608 0H79.5091L80.5119 26.3245H72.7759L67.0455 0.572272L74.3517 6.43805H6.16016L13.6097 0.572272L7.87928 26.3245H0Z" fill="black"/>
<path d="M112.764 97C106.461 97 100.778 95.617 95.7164 92.851C90.6546 89.9897 86.6433 85.8884 83.6826 80.5472C80.7219 75.206 79.2416 68.8156 79.2416 61.3761C79.2416 53.8412 80.7697 47.4031 83.8259 42.0619C86.8821 36.7207 90.9411 32.6672 96.003 29.9012C101.065 27.0398 106.652 25.6091 112.764 25.6091C118.877 25.6091 124.464 26.9921 129.526 29.7581C134.588 32.5241 138.647 36.5777 141.703 41.9189C144.759 47.2601 146.287 53.6981 146.287 61.233C146.287 68.7679 144.759 75.206 141.703 80.5472C138.742 85.8884 134.731 89.9897 129.669 92.851C124.607 95.617 118.972 97 112.764 97ZM112.764 91.1342C116.107 91.1342 118.972 90.085 121.36 87.9867C123.748 85.793 125.562 82.5024 126.804 78.115C128.045 73.7276 128.666 68.148 128.666 61.3761C128.666 54.5088 128.045 48.8815 126.804 44.4941C125.562 40.1067 123.748 36.8638 121.36 34.7655C118.972 32.5718 116.107 31.4749 112.764 31.4749C109.326 31.4749 106.413 32.5718 104.026 34.7655C101.638 36.8638 99.8232 40.1544 98.5816 44.6372C97.3401 49.0246 96.7193 54.6519 96.7193 61.5192C96.7193 68.1957 97.3401 73.7276 98.5816 78.115C99.8232 82.5024 101.638 85.793 104.026 87.9867C106.413 90.085 109.326 91.1342 112.764 91.1342Z" fill="black"/>
<path d="M156.451 94.997V90.1327L170.49 87.5575H177.223L190.833 90.1327V94.997H156.451ZM165.476 94.997C165.572 92.8033 165.619 89.942 165.619 86.413C165.715 82.7886 165.763 79.0688 165.763 75.2537C165.858 71.3432 165.906 67.9095 165.906 64.9528V57.9425C165.906 55.2719 165.906 52.9828 165.906 51.0752C165.906 49.0723 165.858 47.2124 165.763 45.4956C165.763 43.7788 165.667 41.9189 165.476 39.9159L155.591 38.3422V33.9071L178.942 25.6091L181.091 27.0398L182.094 42.3481V42.7773V64.9528C182.094 67.9095 182.094 71.3432 182.094 75.2537C182.19 79.0688 182.285 82.7886 182.381 86.413C182.476 89.942 182.572 92.8033 182.667 94.997H165.476ZM198.856 94.997V90.1327L212.608 87.5575H219.342L232.808 90.1327V94.997H198.856ZM207.594 94.997C207.69 92.8033 207.785 89.942 207.881 86.413C207.976 82.7886 208.024 79.0688 208.024 75.2537C208.12 71.4385 208.167 68.0049 208.167 64.9528V51.6475C208.167 45.9248 207.403 42.0143 205.875 39.9159C204.347 37.7222 201.721 36.6254 197.996 36.6254C195.895 36.6254 193.794 37.0546 191.693 37.913C189.591 38.676 187.49 39.8205 185.389 41.3466C183.383 42.7773 181.33 44.5418 179.229 46.6401L177.94 41.2035H179.372C181.76 38.056 184.291 35.3378 186.965 33.0487C189.735 30.6642 192.648 28.852 195.704 27.6121C198.856 26.2768 202.103 25.6091 205.445 25.6091C211.558 25.6091 216.19 27.5644 219.342 31.4749C222.493 35.3854 224.069 41.6327 224.069 50.2168V64.9528C224.069 68.0049 224.069 71.4385 224.069 75.2537C224.165 79.0688 224.26 82.7886 224.356 86.413C224.451 89.942 224.547 92.8033 224.642 94.997H207.594ZM240.974 94.997V90.1327L254.584 87.5575H261.317L274.926 90.1327V94.997H240.974ZM249.569 94.997C249.665 92.8033 249.76 89.942 249.856 86.413C249.951 82.7886 249.999 79.0688 249.999 75.2537C249.999 71.4385 249.999 68.0049 249.999 64.9528V51.5044C249.999 45.5909 249.187 41.6327 247.564 39.6298C246.036 37.6268 243.505 36.6254 239.971 36.6254C237.87 36.6254 235.769 37.0069 233.668 37.7699C231.662 38.4376 229.609 39.5344 227.507 41.0605C225.502 42.4912 223.401 44.351 221.204 46.6401L219.628 41.3466H220.918C223.592 37.8176 226.314 34.9086 229.083 32.6195C231.853 30.235 234.766 28.4705 237.822 27.326C240.878 26.1814 244.03 25.6091 247.277 25.6091C253.485 25.6091 258.165 27.5167 261.317 31.3319C264.468 35.147 266.044 41.3466 266.044 49.9307V64.9528C266.044 68.0049 266.044 71.4385 266.044 75.2537C266.14 79.0688 266.235 82.7886 266.331 86.413C266.426 89.942 266.522 92.8033 266.617 94.997H249.569Z" fill="black"/>
<path d="M314.833 94.997V89.5605L333.17 87.4145H335.463V94.997H314.833ZM326.294 94.997C326.485 90.4189 326.628 85.6499 326.724 80.6903C326.819 75.7306 326.867 70.6755 326.867 65.5251C326.867 60.3746 326.867 55.3196 326.867 50.3599V44.4941C326.867 39.5344 326.867 34.527 326.867 29.472C326.867 24.3215 326.819 19.2665 326.724 14.3068C326.628 9.3471 326.485 4.57817 326.294 0H344.488C344.392 4.48279 344.297 9.20403 344.201 14.1637C344.106 19.1234 344.058 24.1785 344.058 29.3289C344.058 34.384 344.058 39.439 344.058 44.4941V49.3584C344.058 54.6042 344.058 59.8977 344.058 65.2389C344.058 70.4848 344.106 75.5875 344.201 80.5472C344.297 85.5069 344.392 90.3235 344.488 94.997H326.294ZM335.176 94.997V88.7021H350.791C358.718 88.7021 364.735 86.9852 368.842 83.5516C372.949 80.118 375.002 75.2537 375.002 68.9587C375.002 62.0914 372.997 56.9887 368.985 53.6504C364.974 50.3122 358.718 48.6431 350.218 48.6431H335.176V42.7773H349.502C354.468 42.7773 358.527 42.0619 361.679 40.6313C364.831 39.2006 367.171 37.1023 368.699 34.3363C370.322 31.4749 371.134 27.9459 371.134 23.7493C371.134 19.648 370.37 16.3097 368.842 13.7345C367.409 11.1593 365.261 9.25172 362.395 8.0118C359.53 6.77188 355.949 6.15191 351.651 6.15191H335.176V0H355.949C363.303 0 369.32 1.00148 373.999 3.00443C378.679 4.912 382.165 7.5826 384.457 11.0162C386.749 14.3545 387.896 18.2173 387.896 22.6047C387.896 26.4199 386.893 29.9966 384.887 33.3348C382.977 36.5777 379.873 39.3437 375.575 41.6327C371.373 43.8264 365.69 45.2094 358.527 45.7817V44.6372C366.454 45.0187 372.949 46.3063 378.011 48.5C383.072 50.5983 386.797 53.412 389.185 56.941C391.668 60.3746 392.91 64.3328 392.91 68.8156C392.91 72.1539 392.146 75.3967 390.617 78.5442C389.185 81.6917 386.893 84.5054 383.741 86.9852C380.589 89.4651 376.435 91.4203 371.277 92.851C366.216 94.2817 360.103 94.997 352.94 94.997H335.176ZM314.833 5.43658V0H335.463V7.5826H333.17L314.833 5.43658Z" fill="black"/>
<path d="M402.542 94.997V90.1327L416.724 87.5575H424.89L439.503 90.1327V94.997H402.542ZM411.424 94.997C411.519 92.8033 411.567 89.942 411.567 86.413C411.662 82.7886 411.71 79.0688 411.71 75.2537C411.806 71.3432 411.853 67.9095 411.853 64.9528V57.9425C411.853 55.2719 411.806 52.9828 411.71 51.0752C411.71 49.0723 411.662 47.2124 411.567 45.4956C411.567 43.7788 411.519 41.9189 411.424 39.9159L401.539 38.3422V33.9071L424.89 25.6091L427.039 27.0398L428.042 45.4956V45.7817V64.9528C428.042 67.9095 428.042 71.3432 428.042 75.2537C428.137 79.0688 428.233 82.7886 428.328 86.413C428.424 89.942 428.519 92.8033 428.615 94.997H411.424ZM427.755 56.0826L424.604 46.9262H427.182C428.615 42.2527 430.429 38.3422 432.626 35.1947C434.823 32.0472 437.258 29.6627 439.932 28.0413C442.607 26.4199 445.281 25.6091 447.955 25.6091C450.534 25.6091 452.826 26.2291 454.831 27.469C456.837 28.7089 458.174 30.6165 458.843 33.1917C458.747 36.53 457.888 39.1052 456.264 40.9174C454.64 42.6342 452.491 43.4926 449.817 43.4926C447.907 43.4926 446.188 43.0634 444.66 42.205C443.132 41.3466 441.604 40.059 440.076 38.3422L436.351 34.0501L442.368 34.1932C439.121 36.1008 436.16 38.9621 433.486 42.7773C430.907 46.497 428.997 50.9321 427.755 56.0826Z" fill="black"/>
<path d="M496.795 97C490.492 97 484.809 95.617 479.747 92.851C474.686 89.9897 470.674 85.8884 467.714 80.5472C464.753 75.206 463.273 68.8156 463.273 61.3761C463.273 53.8412 464.801 47.4031 467.857 42.0619C470.913 36.7207 474.972 32.6672 480.034 29.9012C485.096 27.0398 490.683 25.6091 496.795 25.6091C502.908 25.6091 508.495 26.9921 513.557 29.7581C518.618 32.5241 522.677 36.5777 525.734 41.9189C528.79 47.2601 530.318 53.6981 530.318 61.233C530.318 68.7679 528.79 75.206 525.734 80.5472C522.773 85.8884 518.762 89.9897 513.7 92.851C508.638 95.617 503.003 97 496.795 97ZM496.795 91.1342C500.138 91.1342 503.003 90.085 505.391 87.9867C507.778 85.793 509.593 82.5024 510.835 78.115C512.076 73.7276 512.697 68.148 512.697 61.3761C512.697 54.5088 512.076 48.8815 510.835 44.4941C509.593 40.1067 507.778 36.8638 505.391 34.7655C503.003 32.5718 500.138 31.4749 496.795 31.4749C493.357 31.4749 490.444 32.5718 488.056 34.7655C485.669 36.8638 483.854 40.1544 482.613 44.6372C481.371 49.0246 480.75 54.6519 480.75 61.5192C480.75 68.1957 481.371 73.7276 482.613 78.115C483.854 82.5024 485.669 85.793 488.056 87.9867C490.444 90.085 493.357 91.1342 496.795 91.1342Z" fill="black"/>
<path d="M564.143 95.5693L539.502 27.469H556.98L573.598 79.5457H570.876L571.592 77.5428L588.927 27.469H597.522L615.43 79.2596H612.851L613.424 77.2566L629.183 27.469H636.776L613.424 95.5693H606.118L587.494 43.2065H590.216L589.5 44.9233L571.449 95.5693H564.143ZM534.631 32.4764V27.469H568.584V32.4764L553.685 34.7655H547.955L534.631 32.4764ZM577.18 32.4764V27.469H609.126V32.4764L596.09 34.6224L591.076 34.4794L577.18 32.4764ZM617.579 32.4764V27.469H642.219V32.4764L632.048 34.3363H629.613L617.579 32.4764Z" fill="black"/>
<path d="M647.926 94.997V90.1327L661.966 87.5575H668.699L682.309 90.1327V94.997H647.926ZM656.952 94.997C657.047 92.8033 657.095 89.942 657.095 86.413C657.19 82.7886 657.238 79.0688 657.238 75.2537C657.334 71.3432 657.381 67.9095 657.381 64.9528V57.9425C657.381 55.2719 657.334 52.9828 657.238 51.0752C657.238 49.0723 657.19 47.2124 657.095 45.4956C657.095 43.7788 657.047 41.9189 656.952 39.9159L647.067 38.3422V33.9071L670.418 25.6091L672.567 27.0398L673.57 42.4912V42.7773V64.9528C673.57 67.9095 673.57 71.3432 673.57 75.2537C673.665 79.0688 673.761 82.7886 673.856 86.413C673.952 89.942 674.047 92.8033 674.143 94.997H656.952ZM690.618 94.997V90.1327L704.514 87.5575H711.247L725 90.1327V94.997H690.618ZM699.5 94.997C699.595 92.8033 699.643 89.942 699.643 86.413C699.739 82.7886 699.786 79.0688 699.786 75.2537C699.882 71.4385 699.93 68.0049 699.93 64.9528V51.2183C699.93 45.6863 699.118 41.8712 697.494 39.7729C695.966 37.6745 693.435 36.6254 689.901 36.6254C687.8 36.6254 685.699 37.0069 683.598 37.7699C681.497 38.4376 679.348 39.5344 677.151 41.0605C675.05 42.4912 672.853 44.351 670.561 46.6401L669.559 40.6313H671.278C673.761 37.4838 676.387 34.8132 679.157 32.6195C681.927 30.3304 684.84 28.6136 687.896 27.469C691.047 26.2291 694.199 25.6091 697.351 25.6091C703.272 25.6091 707.857 27.5644 711.104 31.4749C714.447 35.3854 716.118 41.6327 716.118 50.2168V64.9528C716.118 68.0049 716.118 71.4385 716.118 75.2537C716.213 79.0688 716.261 82.7886 716.261 86.413C716.357 89.942 716.452 92.8033 716.548 94.997H699.5Z" fill="black"/>
</svg>
