<svg width="32" height="32" viewBox="0 0 32 32" fill="none" xmlns="http://www.w3.org/2000/svg">
<rect width="32" height="32" rx="6" fill="black"/>
<path d="M8.14309 22V21.1573L10.5109 20.8824H11.5478L13.9674 21.1573V22H8.14309ZM9.47387 22C9.49692 21.426 9.5142 20.8275 9.52572 20.2046C9.53724 19.5695 9.54301 18.9221 9.54301 18.2626C9.54301 17.6031 9.54301 16.9557 9.54301 16.3206V15.6427C9.54301 15.0198 9.54301 14.3847 9.54301 13.7374C9.54301 13.0901 9.53724 12.455 9.52572 11.8321C9.52572 11.1969 9.5142 10.5863 9.49116 10H12.6194C12.6078 10.574 12.5963 11.1786 12.5848 11.8137C12.5733 12.4366 12.5618 13.0718 12.5502 13.7191C12.5502 14.3664 12.5502 15.0076 12.5502 15.6427V16.3206C12.5502 16.9435 12.5502 17.5847 12.5502 18.2443C12.5618 18.8916 12.5733 19.5328 12.5848 20.1679C12.5963 20.8031 12.6078 21.4137 12.6194 22H9.47387ZM6 13.4809L6.1037 10H16.0068L16.0932 13.4809H14.918L14.1921 10.0733L15.3155 10.8977H6.79502L7.91841 10.0733L7.19252 13.4809H6Z" fill="white"/>
<path d="M16.924 22V21.1573L19.2572 20.8824H19.551V22H16.924ZM18.0993 22C18.1223 21.4137 18.1338 20.8031 18.1338 20.1679C18.1454 19.5328 18.1511 18.8855 18.1511 18.226C18.1627 17.5664 18.1684 16.913 18.1684 16.2656V15.716C18.1684 15.0687 18.1627 14.4214 18.1511 13.774C18.1511 13.1267 18.1454 12.4855 18.1338 11.8504C18.1338 11.2031 18.1223 10.5863 18.0993 10H21.1929C21.1814 10.5863 21.1699 11.1969 21.1584 11.8321C21.1468 12.4672 21.1353 13.1145 21.1238 13.774C21.1238 14.4214 21.1238 15.0687 21.1238 15.716V16.229C21.1238 16.8763 21.1238 17.5298 21.1238 18.1893C21.1353 18.8489 21.1468 19.5023 21.1584 20.1496C21.1699 20.7847 21.1814 21.4015 21.1929 22H18.0993ZM19.6375 22V21.084H21.5732C22.3106 21.084 22.8867 20.8763 23.3014 20.4611C23.7162 20.0336 23.9236 19.429 23.9236 18.6473C23.9236 17.7802 23.7278 17.1511 23.336 16.7603C22.9558 16.3573 22.3682 16.1557 21.5732 16.1557H19.6375V15.313H21.4867C21.9246 15.313 22.2875 15.2275 22.5756 15.0565C22.8751 14.8733 23.0998 14.6107 23.2496 14.2687C23.3994 13.9267 23.4743 13.5053 23.4743 13.0046C23.4743 12.5405 23.4051 12.1557 23.2669 11.8504C23.1286 11.545 22.9212 11.313 22.6447 11.1542C22.3682 10.9954 22.0168 10.916 21.5904 10.916H19.6375V10H22.2126C23.2496 10 24.0677 10.1282 24.6668 10.3847C25.2775 10.629 25.7095 10.9649 25.963 11.3924C26.2165 11.8076 26.3432 12.2779 26.3432 12.8031C26.3432 13.2794 26.2223 13.7191 25.9803 14.1221C25.7499 14.5252 25.3524 14.8611 24.7878 15.1298C24.2347 15.3985 23.4743 15.5878 22.5064 15.6977V15.5511C23.5319 15.6 24.373 15.7527 25.0297 16.0092C25.698 16.2656 26.1935 16.6137 26.5161 17.0534C26.8387 17.4931 27 18.0183 27 18.629C27 19.0809 26.9021 19.5084 26.7062 19.9115C26.5103 20.3145 26.205 20.6748 25.7902 20.9924C25.3754 21.3099 24.8223 21.5603 24.131 21.7435C23.4512 21.9145 22.6217 22 21.6423 22H19.6375ZM16.924 10.8611V10H19.551V11.1359H19.2572L16.924 10.8611Z" fill="white"/>
</svg>
